<?xml version="1.0" standalone="no"?>
<!DOCTYPE svg PUBLIC "-//W3C//DTD SVG 20010904//EN"
 "http://www.w3.org/TR/2001/REC-SVG-20010904/DTD/svg10.dtd">
<svg version="1.0" xmlns="http://www.w3.org/2000/svg"
 width="400.000000pt" height="400.000000pt" viewBox="0 0 400.000000 400.000000"
 preserveAspectRatio="xMidYMid meet">
<metadata>
Created by potrace 1.15, written by Peter Selinger 2001-2017
</metadata>
<g transform="translate(0.000000,400.000000) scale(0.100000,-0.100000)"
fill="#000000" stroke="none">
<path d="M1949 3847 c-19 -7 -45 -20 -56 -28 -64 -45 -1871 -1672 -1881 -1694
-18 -39 -14 -96 8 -133 32 -53 68 -62 244 -62 l155 0 3 -793 c3 -784 3 -792
24 -837 28 -59 77 -108 139 -136 l50 -24 1360 0 c1346 0 1360 1 1405 21 60 27
107 74 136 134 l24 50 0 793 0 792 165 0 c187 0 222 8 255 62 22 37 26 94 8
133 -15 33 -1756 1672 -1810 1704 -49 30 -172 39 -229 18z m366 -1415 c63 -29
110 -73 143 -137 25 -47 27 -59 30 -221 l4 -172 27 -5 c14 -3 39 -16 55 -28
54 -43 56 -57 56 -441 0 -394 -1 -400 -69 -445 l-34 -23 -529 0 c-584 0 -569
-2 -608 63 -19 30 -20 53 -20 405 0 317 2 377 15 403 18 34 69 69 103 69 22 0
22 1 22 164 0 119 4 175 15 206 32 91 117 163 212 180 27 5 156 8 288 7 227
-2 243 -4 290 -25z"/>
<path d="M1800 2213 c-46 -18 -50 -30 -50 -170 l0 -133 250 0 250 0 0 124 c0
118 -1 127 -24 153 l-24 28 -194 2 c-106 1 -200 -1 -208 -4z"/>
<path d="M1909 1648 c-56 -32 -82 -87 -77 -158 3 -43 11 -67 31 -93 23 -31 27
-45 27 -107 0 -78 18 -133 48 -149 12 -6 39 -11 62 -11 33 0 48 6 71 29 28 28
29 33 29 119 0 71 3 92 17 103 9 8 25 34 36 58 34 78 1 176 -73 213 -48 25
-126 23 -171 -4z"/>
</g>
</svg>
